<?xml version="1.0" encoding="utf-8"?>
<!-- Generator: Adobe Illustrator 19.2.0, SVG Export Plug-In . SVG Version: 6.00 Build 0)  -->
<svg version="1.1" id="Capa_1" xmlns="http://www.w3.org/2000/svg" xmlns:xlink="http://www.w3.org/1999/xlink" x="0px" y="0px"
	 viewBox="0 0 2027.6 330.5" style="enable-background:new 0 0 2027.6 330.5;" xml:space="preserve">
<style type="text/css">
	.st0{fill:#C5BA9F;}
</style>
<title>header-08</title>
<path class="st0" d="M36.3,278.5c3.3,2.1,12.7-0.6,15.5,4l-1.2-5.6c5.2-4,3.1,3.3,7.5-2.1l-0.9,8.9c1.7-4.5,4.9-0.6,6.1,2l1.7-6.1
	c2.9,3.5,4.9,5,5.6,10.8v-5.9c1,3.8,11.9-0.3,8,9.4c1-1.2,1.8-4.2,3.8-3.5v5.8c2.9-1.4,6.1-2.6,7,0.7c-1.6,1.4-2.1,3.9-2.7,6.5
	c12.4,1,2.7-18.6,13.3-19.4l-0.3,3.8l2.7-3.9l2.9,4.6c2.6-9.2,9.1-4.8,14.8-4.2l-8.4,2.1c6.6,0.1,13.1-0.3,19.6-1.1
	c1.7,1.2,3.5,2.3,5.5,2l-0.3-2.7l2.7-0.4c5.9,4.2,16.3,7.8,20.2,18.5c3.2-4.8-0.4-1.1-0.7-5.8c6.5-6.5,7.7,2.3,11.6,5.5
	c4-3.2-3.5-1.8-1.6-6.5c6.9,3.8,4.6-7.5,12.9-4.5c1.1,3.1-1.8,2.3-2.6,4.6c5-6.3,15.8-3.8,24-5.8c9.8,3.2,24,3.5,35.4,7.6v-2.2
	c5,4.9,9.6-0.6,15.2,1.4l-2.9-2.8c3.2-3.9,5.3-1.8,8.6-3.7l2.3,5.8c3.1-2.1,1.6-4.6,2.9-7.6l4.5,1l0.7-0.7c3.1-0.3,6.1-2,7.1-1.8
	c1.4,2.7-1,3.9-1.4,5.6c3.8-2.2,3.3-7.6,7.8-8.6h0.4v1.4c0.6-0.3,1.1-0.7,1.6-1.1c10.5,1.7,17.6,3.3,21.6,7.6l-1.8-5.8
	c6.1,3.3,61.9-2.7,43.1,7.7c4.6-1.4,8.8-4.6,19-4.2l1.7,5.6c14.7-2.1,31.1-3.3,35.4-0.1c-8,1.6-10.7,4-13.1,6.6
	c62.4,0,12.7-18.9,68.1-20.5l-0.6,3.8l14-4.2l14.7,4.6c19.9-12.6,77.8,0.7,111.1-5.6c13.1-1,30.4,6.7,55.4,6.1l-1.6-5.8
	c20.2,6.1,95.1,11,113.6,25c19-3.9-2-1.2-1.4-5.8c37.1-5,39.5,4,58.7,7.8c22.8-2.2-17.4-2.7-5-6.6c34.8,5.2,28.6-6.1,71.6-1.1
	c4.2,3.3-11.3,2-15.7,3.9c30.5-4.9,87,0.6,132.1,1c51.6,5.9,127.8,10.2,188.2,17.6l1.2-2.1c25,6.1,52.4,2.1,81.7,5.5l-14-3.2
	c19.4-2.9,30-0.3,48.3-1.4l9.9,6.3c19.7-1.4,8.8-4.8,23.3-7.6c17.8,4.3,55.9,1.8,64.3,2.2c5.9,2.9-7.5,3.7-10.4,5.3
	c23.1-1.6,21.7-7.2,50.5-6.7l0.4,1.7c34.3-3.3,73.3-4.6,113.2-5.2c39.9-0.6,80.7-1.4,118.8-4.3c-5.2-0.3-3.9-1.6-5.9-2.8l51.7-1.6
	c-1.1,1.4-2.4,2.7-3.7,3.9c6.6,0.6,6.6-2.8,12.7-3.8c4.9,1,7.7,7.5,12.5,11l-2.9-5.2c5.5-5.5,4.8,2.2,8.8-4.2l1.2,8.9
	c1-4.9,6-1.8,8.1,0.1l0.6-6.5c4.5,2.8,7.2,3.8,9.4,9.1l-1.2-5.6c2.1,3.3,15-3.1,11.9,7.2c1-1.6,1.6-4.6,4-4.3l1.2,5.6
	c3.3-2.1,7.2-3.8,8.8-0.9c-1.7,1.7-2,4.2-2.2,6.9c15.4-1.6,0.1-19,13.6-21.7l0.4,3.7l2.8-4.5l4.3,4c2.8-13.3,19.2-2,26.3-10.1
	c3.1-1.6-1-8,5-9.9l-1.4-5.6c6,4.9,25.5,4.8,33.5,16.4c3.9-5.5-0.9-1-1.7-5.5c8.1-8,10.9,0.6,16.8,2.6c5.2-4.3-5-1-2.9-5.9
	c10.2,1.8,5.5-8.7,17.6-8.2c2.1,2.7-2.2,3.1-2.8,5.5c6.1-7.8,21.8-9.2,33.2-15.2c2.8-0.3,15.4,12.1,18.5,11.5
	c1.5,0.8,3.2,1.3,4.9,1.6c0.9-1.7,7.5-3.5,7.2-4.9l1-0.3c1.5-0.4,2.9-1,4.3-1.6c14.3-5.6,28-14.7,37.4-26.1l-1.6-1.6
	c5.3-3.8,7.8-9.8,9.4-16.3c0.7-3.2,1.2-6.6,1.7-10.1c0.3-1.7,0.6-3.3,0.9-5.2c0.3-1.9,0.7-3.8,1.1-4.3c-0.8,0.6-1.4,1.4-1.8,2.3
	l-2,3.2c-0.6-2.3-0.9-4.8-1.1-5.8c-0.1-1-0.1-1.9-0.1-2.9c0.1-2,0.6-3.8,0-6.1l6.3-2c-1.6-5.3-4.9-2.8-7.6-6.7
	c4.3-4.3,1.6-14.5,2-16.5c2.9-1.2,3.7,2.2,5.3,3.1c-1.6-6.1-7.2-6.1-6.9-13.5h1.7c-7.5-18-4.6-40.2-10.5-59.7
	c-0.3,1.2-1.6,1-2.8,1.6c-2.1-16.7-3.7-35.5-12.9-49.9c7.2-1.6,14.5-3.2,21.1-5c-7.1,0.7-15.2,1.2-23.5,1.6
	c-1.5-1.8-3.1-3.6-4.8-5.2c0.4,1.7,0.6,3.5,0.6,5.3c-8.7,0.3-17.9,0.6-27.4,0.7V41.5l-798.9-4.1c1.2-2,1.8-4-1.7-6.1
	c23.5-2.6,53.5-1.7,66.1-3.1l-44.7-0.7c2.9-3.1-29.9-7.7-6-9.4c-44.2-6.1-98.6-5.8-141.7-4.3c6,1.2,13.8,2.3,12.5,4.3
	c-22.3,1.1-19.7-2.8-24.3-5.3c-16.5,2-14.8,7.7-25,11.8c-33.8-5.2-38.5-2.2-67.5-8.9l1.8,5.8c-20.5-4.5-23.4,4.3-45.3,1.2
	c-1.2-1.2,7.1-2.8,13.8-4.3c-19.5,2.2-18-4.5-37-2l15-6.7c-15.2,0.6-37.2,2.9-29.5-2.7c-26.2,7.1-72.4,5.5-105.1,9.6l2.1-5
	c-16.9,6.3-62.1-0.3-76.8,6.6l-1.8-2.2l-16.8,2.9c-8.4,1.4-16.9,2.7-16.9,2.7c-15.2-1.2-9.7-8.6-11-6.5c-33.3-0.1-59.7-1.7-81-5.8
	c-5.9,6.3-41.2,5.3-69.3,3.8c-67.5-7.7-137.9-13.5-207.7-13S126.4,6.5,64.6,20.6c-9.2,1.8-20.2,5.3-31.2,9.9S10.9,40.6,0,44.9
	c10-1.4,19.8-3.6,29.4-6.7c3.8-1.1,7.5-2.6,11.9-3.5s9.8-2.2,16.8-3.3c19-1.8,28,2.9,43,5.5l-0.6,111.6c-0.7-0.4-1.4-0.1-2.3,1.2
	c0.7-0.3,1.5-0.5,2.3-0.6v2.9c-1.4,0.3-3.1,0.3-2.3,2.1l-5.5-4.2c-0.4,2.1,0.4,5.6-4.5,2.8c5,5.6,0.6,10.9,2.8,16.4l-4.4-1.8
	c5,4-2.8,8.2,3.5,12.4l-2.1-0.3l5.2,6.3c-1.1,1.8-8.1-0.9-6.1-0.1c0,4.9-0.4,8.4-3.7,10.8c6.3,2.3,6.9,7.5,6.7,11.4
	c-6.5,13.5-6.2,29.4-3,44.1c-13.5,1.6-26.8,4.9-39.8,8.2c-3.1,0-17.5,13.9-21.8,16.7C30,279,31.5,278,36.3,278.5z M125.5,282.7
	l0.7-0.7c0.4-0.1,0.8-0.1,1.2,0.1c-0.7,0.1-1.3,0.4-1.9,0.7V282.7z M1187.7,296.4h14.9c-5,1.3-10.1,1.9-15.2,1.7
	C1186.9,297.5,1187.1,297,1187.7,296.4L1187.7,296.4z M1211.9,296.5h15.4c-2,0.7-5.5,1.1-11.8,0.9
	C1214.3,297.3,1213,297,1211.9,296.5L1211.9,296.5z M1245.7,296.8h17.4c-5.7,1.7-11.7,1.8-17.4,0.1V296.8z M1702.7,305.2
	c-63.2-2.3-88.8,8.2-149.6,7.8c-4.5-0.6-5.5-1.7-5.8-2.9l0,0c-29.3,3.8-56,4.5-82.9,4.3c-26.9-0.2-54-1.2-84-0.7
	c-15,0.3-35.4-0.9-37.8-3.8c9.9-0.7,2.6-3.2,10.7-4.3c-21.3,1.8-2.3,10.2-33.2,8.2l4.2-9.8c-12.6,10.1-37.5-2.9-59.5,2.3
	c-7.7-4.2,6.9-6,23.6-5.8c-19-2.3-20.8,3.3-36.1,2.7l12-6.6l268.1,1.8c-24.8,0.1-48.8,0.6-65.9,3.8c17.3,1.7,38.8,0.4,59.2,1.1
	c8.2,1.8,20.6,3.3,21.8,5.9c0.1-1.2-0.3-2.5-1-3.5l48.2-2.3l-29.2-2.4c7-1.4,19.7-1.4,30.1-2l172.1,1.1c-6.9,2.3-13.7,5.2-20.2,8
	C1730.9,305.8,1709,310.8,1702.7,305.2L1702.7,305.2z M1989.6,68.5c-0.7,10.1-2.9,22.2,5.2,29.9c-4,4.2,2.3,10.4-3.7,12.1
	c-2.2,15.7,8.4,21.9,8.2,37.2c-1.1,2.1-4,1-6.9,1.6c0,0-0.7-2.9-1.2-6c-0.5-3.1-1.4-6-1.4-6l-2.6,7.1c-2.6-3.2-0.6-10.8-6-11.6
	c6.5,10.4,0.9,26.7,8,36.1c1.6-4.2,0.1-9.7,0.9-14.6c2-2.1,3.5-5.6,6.3-5.3c8,14.8,3.2,26.8,4.6,42.1c0.4,3.8-0.7,8.9-3.5,9.2
	c-0.7-2.6-3.2-1-4.5-3.1c2,5.5,10.2,1.6,8.4,9.1l-9.8-2c5,2.1,4.3,4.3,3.1,6.9c-1.2,2.6-3.1,4.9-0.6,8.9c-4.2,1.7-5.9-3.3-5.8-7.2
	c-2.2,4.3,3.5,6,2.6,10.5c0-0.1-7.7-5.9-7.7-5.8c3.8,2.8,2.9,4.9,1,6c-1.9,1.1-5.2,1.6-6.7,2c1.8,1.1,8.7,1.1,6.5,6.3
	c-1.8,1.8-3.3-0.4-4.6-0.4c1.7,1.1,4.5,4.9,2.6,8.2c-2.7-1-2.2-4.3-4.8-6c-1,2.2-1.8,4.3-4.9,4c-1.1,4.8,3.5,2.3,3.8,6.5
	c-3.5,2-5.3,0.1-7.1-2.2c-1.8-2.3-3.8-5.3-6.7-6.9c0.3-5.3,1.4-9.6-0.1-12.1c0,1.1-0.1,2.2-0.4,3.2c-0.1,0.6-0.3,1-0.4,1.6l1-155
	C1971.7,71.8,1980.7,70.2,1989.6,68.5L1989.6,68.5z M201.2,31.3h-23.9l3.3-3.2C187.5,28.8,194.4,29.9,201.2,31.3z M138.1,30.9
	l-32.3-0.3c17-3.8,13.5,2,32.5-4.6L138.1,30.9z M96.7,33l4.6-1.2v3.3L96.7,33z"/>
</svg>
